<svg width="189" height="9" viewBox="0 0 189 9" fill="none" xmlns="http://www.w3.org/2000/svg">
<path d="M0.642857 1.21429H1.28571V1.85714H0.642857V1.21429ZM3.21429 1.21429H3.85714V1.85714H3.21429V1.21429ZM3.21429 1.85714H3.85714V2.5H3.21429V1.85714ZM3.85714 1.21429H4.5V1.85714H3.85714V1.21429ZM3.85714 1.85714H4.5V2.5H3.85714V1.85714ZM3.85714 2.5H4.5V3.14286H3.85714V2.5ZM3.85714 3.14286H4.5V3.78571H3.85714V3.14286ZM3.85714 3.78571H4.5V4.42857H3.85714V3.78571ZM3.85714 4.42857H4.5V5.07143H3.85714V4.42857ZM3.85714 5.07143H4.5V5.71429H3.85714V5.07143ZM3.85714 5.71429H4.5V6.35714H3.85714V5.71429ZM3.21429 5.71429H3.85714V6.35714H3.21429V5.71429ZM3.21429 5.07143H3.85714V5.71429H3.21429V5.07143ZM3.21429 4.42857H3.85714V5.07143H3.21429V4.42857ZM3.21429 3.78571H3.85714V4.42857H3.21429V3.78571ZM3.21429 3.14286H3.85714V3.78571H3.21429V3.14286ZM3.21429 2.5H3.85714V3.14286H3.21429V2.5ZM2.57143 5.07143H3.21429V5.71429H2.57143V5.07143ZM2.57143 5.71429H3.21429V6.35714H2.57143V5.71429ZM3.21429 6.35714H3.85714V7H3.21429V6.35714ZM2.57143 6.35714H3.21429V7H2.57143V6.35714ZM1.92857 6.35714H2.57143V7H1.92857V6.35714ZM1.92857 5.71429H2.57143V6.35714H1.92857V5.71429ZM1.28571 6.35714H1.92857V7H1.28571V6.35714ZM0.642857 6.35714H1.28571V7H0.642857V6.35714ZM0.642857 5.71429H1.28571V6.35714H0.642857V5.71429ZM1.28571 5.71429H1.92857V6.35714H1.28571V5.71429ZM1.28571 5.07143H1.92857V5.71429H1.28571V5.07143ZM0.642857 5.07143H1.28571V5.71429H0.642857V5.07143ZM0 5.71429H0.642857V6.35714H0V5.71429ZM0 5.07143H0.642857V5.71429H0V5.07143ZM0 4.42857H0.642857V5.07143H0V4.42857ZM0 3.78571H0.642857V4.42857H0V3.78571ZM0 3.14286H0.642857V3.78571H0V3.14286ZM0 2.5H0.642857V3.14286H0V2.5ZM0 1.85714H0.642857V2.5H0V1.85714ZM0.642857 1.85714H1.28571V2.5H0.642857V1.85714ZM0 1.21429H0.642857V1.85714H0V1.21429ZM0.642857 2.5H1.28571V3.14286H0.642857V2.5ZM0.642857 3.14286H1.28571V3.78571H0.642857V3.14286ZM0.642857 3.78571H1.28571V4.42857H0.642857V3.78571ZM0.642857 4.42857H1.28571V5.07143H0.642857V4.42857ZM0 0.571429H0.642857V1.21429H0V0.571429ZM0.642857 0.571429H1.28571V1.21429H0.642857V0.571429ZM3.21429 0.571429H3.85714V1.21429H3.21429V0.571429ZM3.85714 0.571429H4.5V1.21429H3.85714V0.571429ZM5.14453 2.5H5.78739V3.14286H5.14453V2.5ZM5.14453 1.85714H5.78739V2.5H5.14453V1.85714ZM5.78739 1.85714H6.43025V2.5H5.78739V1.85714ZM5.78739 2.5H6.43025V3.14286H5.78739V2.5ZM5.78739 3.14286H6.43025V3.78571H5.78739V3.14286ZM5.78739 3.78571H6.43025V4.42857H5.78739V3.78571ZM5.78739 4.42857H6.43025V5.07143H5.78739V4.42857ZM5.14453 4.42857H5.78739V5.07143H5.14453V4.42857ZM5.14453 3.78571H5.78739V4.42857H5.14453V3.78571ZM5.14453 3.14286H5.78739V3.78571H5.14453V3.14286ZM5.14453 5.07143H5.78739V5.71429H5.14453V5.07143ZM5.78739 5.07143H6.43025V5.71429H5.78739V5.07143ZM5.78739 5.71429H6.43025V6.35714H5.78739V5.71429ZM5.78739 6.35714H6.43025V7H5.78739V6.35714ZM5.14453 6.35714H5.78739V7H5.14453V6.35714ZM5.14453 5.71429H5.78739V6.35714H5.14453V5.71429ZM8.35882 6.35714H9.00167V7H8.35882V6.35714ZM9.00167 6.35714H9.64453V7H9.00167V6.35714ZM9.00167 5.71429H9.64453V6.35714H9.00167V5.71429ZM9.00167 5.07143H9.64453V5.71429H9.00167V5.07143ZM9.00167 4.42857H9.64453V5.07143H9.00167V4.42857ZM9.00167 3.78571H9.64453V4.42857H9.00167V3.78571ZM9.00167 3.14286H9.64453V3.78571H9.00167V3.14286ZM9.00167 2.5H9.64453V3.14286H9.00167V2.5ZM8.35882 3.78571H9.00167V4.42857H8.35882V3.78571ZM8.35882 4.42857H9.00167V5.07143H8.35882V4.42857ZM8.35882 5.07143H9.00167V5.71429H8.35882V5.07143ZM8.35882 5.71429H9.00167V6.35714H8.35882V5.71429ZM8.35882 3.14286H9.00167V3.78571H8.35882V3.14286ZM6.43025 2.5H7.0731V3.14286H6.43025V2.5ZM7.0731 2.5H7.71596V3.14286H7.0731V2.5ZM7.71596 2.5H8.35882V3.14286H7.71596V2.5ZM7.71596 1.85714H8.35882V2.5H7.71596V1.85714ZM8.35882 1.85714H9.00167V2.5H8.35882V1.85714ZM8.35882 2.5H9.00167V3.14286H8.35882V2.5ZM7.0731 1.85714H7.71596V2.5H7.0731V1.85714ZM10.2891 0.571429H10.9319V1.21429H10.2891V0.571429ZM10.9319 0.571429H11.5748V1.21429H10.9319V0.571429ZM10.9319 1.21429H11.5748V1.85714H10.9319V1.21429ZM10.9319 1.85714H11.5748V2.5H10.9319V1.85714ZM10.9319 2.5H11.5748V3.14286H10.9319V2.5ZM10.9319 3.14286H11.5748V3.78571H10.9319V3.14286ZM10.9319 3.78571H11.5748V4.42857H10.9319V3.78571ZM10.2891 3.78571H10.9319V4.42857H10.2891V3.78571ZM10.2891 4.42857H10.9319V5.07143H10.2891V4.42857ZM10.2891 5.07143H10.9319V5.71429H10.2891V5.07143ZM10.2891 5.71429H10.9319V6.35714H10.2891V5.71429ZM10.2891 6.35714H10.9319V7H10.2891V6.35714ZM10.9319 6.35714H11.5748V7H10.9319V6.35714ZM10.9319 5.71429H11.5748V6.35714H10.9319V5.71429ZM10.9319 5.07143H11.5748V5.71429H10.9319V5.07143ZM10.9319 4.42857H11.5748V5.07143H10.9319V4.42857ZM10.2891 3.14286H10.9319V3.78571H10.2891V3.14286ZM10.2891 2.5H10.9319V3.14286H10.2891V2.5ZM10.2891 1.85714H10.9319V2.5H10.2891V1.85714ZM10.2891 1.21429H10.9319V1.85714H10.2891V1.21429ZM13.5084 1.85714H14.1512V2.5H13.5084V1.85714ZM12.8655 1.85714H13.5084V2.5H12.8655V1.85714ZM12.8655 2.5H13.5084V3.14286H12.8655V2.5ZM13.5084 2.5H14.1512V3.14286H13.5084V2.5ZM14.1512 1.85714H14.7941V2.5H14.1512V1.85714ZM14.7941 1.85714H15.4369V2.5H14.7941V1.85714ZM15.4369 1.85714H16.0798V2.5H15.4369V1.85714ZM15.4369 2.5H16.0798V3.14286H15.4369V2.5ZM14.7941 2.5H15.4369V3.14286H14.7941V2.5ZM15.4369 3.78571H16.0798V4.42857H15.4369V3.78571ZM16.0798 2.5H16.7227V3.14286H16.0798V2.5ZM16.0798 3.14286H16.7227V3.78571H16.0798V3.14286ZM16.0798 3.78571H16.7227V4.42857H16.0798V3.78571ZM16.0798 4.42857H16.7227V5.07143H16.0798V4.42857ZM16.0798 5.07143H16.7227V5.71429H16.0798V5.07143ZM16.0798 5.71429H16.7227V6.35714H16.0798V5.71429ZM15.4369 5.71429H16.0798V6.35714H15.4369V5.71429ZM15.4369 5.07143H16.0798V5.71429H15.4369V5.07143ZM15.4369 4.42857H16.0798V5.07143H15.4369V4.42857ZM15.4369 3.14286H16.0798V3.78571H15.4369V3.14286ZM14.7941 5.71429H15.4369V6.35714H14.7941V5.71429ZM15.4369 6.35714H16.0798V7H15.4369V6.35714ZM14.7941 6.35714H15.4369V7H14.7941V6.35714ZM14.1512 6.35714H14.7941V7H14.1512V6.35714ZM13.5084 6.35714H14.1512V7H13.5084V6.35714ZM12.8655 6.35714H13.5084V7H12.8655V6.35714ZM12.8655 5.71429H13.5084V6.35714H12.8655V5.71429ZM13.5084 5.71429H14.1512V6.35714H13.5084V5.71429ZM12.8655 5.07143H13.5084V5.71429H12.8655V5.07143ZM12.2227 5.71429H12.8655V6.35714H12.2227V5.71429ZM12.2227 5.07143H12.8655V5.71429H12.2227V5.07143ZM12.2227 4.42857H12.8655V5.07143H12.2227V4.42857ZM12.2227 3.78571H12.8655V4.42857H12.2227V3.78571ZM12.2227 3.14286H12.8655V3.78571H12.2227V3.14286ZM12.2227 2.5H12.8655V3.14286H12.2227V2.5ZM12.8655 3.14286H13.5084V3.78571H12.8655V3.14286ZM12.8655 3.78571H13.5084V4.42857H12.8655V3.78571ZM12.8655 4.42857H13.5084V5.07143H12.8655V4.42857ZM14.1512 5.71429H14.7941V6.35714H14.1512V5.71429ZM14.1512 2.5H14.7941V3.14286H14.1512V2.5ZM18.6529 1.85714H19.2958V2.5H18.6529V1.85714ZM18.01 1.85714H18.6529V2.5H18.01V1.85714ZM18.01 2.5H18.6529V3.14286H18.01V2.5ZM18.6529 2.5H19.2958V3.14286H18.6529V2.5ZM19.2958 1.85714H19.9386V2.5H19.2958V1.85714ZM19.9386 1.85714H20.5815V2.5H19.9386V1.85714ZM20.5815 1.85714H21.2243V2.5H20.5815V1.85714ZM20.5815 2.5H21.2243V3.14286H20.5815V2.5ZM19.9386 2.5H20.5815V3.14286H19.9386V2.5ZM21.2243 2.5H21.8672V3.14286H21.2243V2.5ZM21.2243 3.14286H21.8672V3.78571H21.2243V3.14286ZM21.2243 5.07143H21.8672V5.71429H21.2243V5.07143ZM21.2243 5.71429H21.8672V6.35714H21.2243V5.71429ZM20.5815 5.71429H21.2243V6.35714H20.5815V5.71429ZM20.5815 5.07143H21.2243V5.71429H20.5815V5.07143ZM20.5815 3.14286H21.2243V3.78571H20.5815V3.14286ZM19.9386 5.71429H20.5815V6.35714H19.9386V5.71429ZM20.5815 6.35714H21.2243V7H20.5815V6.35714ZM19.9386 6.35714H20.5815V7H19.9386V6.35714ZM19.2958 6.35714H19.9386V7H19.2958V6.35714ZM18.6529 6.35714H19.2958V7H18.6529V6.35714ZM18.01 6.35714H18.6529V7H18.01V6.35714ZM18.01 5.71429H18.6529V6.35714H18.01V5.71429ZM18.6529 5.71429H19.2958V6.35714H18.6529V5.71429ZM18.01 5.07143H18.6529V5.71429H18.01V5.07143ZM17.3672 5.71429H18.01V6.35714H17.3672V5.71429ZM17.3672 5.07143H18.01V5.71429H17.3672V5.07143ZM17.3672 4.42857H18.01V5.07143H17.3672V4.42857ZM17.3672 3.78571H18.01V4.42857H17.3672V3.78571ZM17.3672 3.14286H18.01V3.78571H17.3672V3.14286ZM17.3672 2.5H18.01V3.14286H17.3672V2.5ZM18.01 3.14286H18.6529V3.78571H18.01V3.14286ZM18.01 3.78571H18.6529V4.42857H18.01V3.78571ZM18.01 4.42857H18.6529V5.07143H18.01V4.42857ZM19.2958 5.71429H19.9386V6.35714H19.2958V5.71429ZM19.2958 2.5H19.9386V3.14286H19.2958V2.5ZM22.5117 0.571429H23.1546V1.21429H22.5117V0.571429ZM23.1546 0.571429H23.7974V1.21429H23.1546V0.571429ZM23.1546 1.21429H23.7974V1.85714H23.1546V1.21429ZM23.1546 1.85714H23.7974V2.5H23.1546V1.85714ZM23.1546 2.5H23.7974V3.14286H23.1546V2.5ZM22.5117 2.5H23.1546V3.14286H22.5117V2.5ZM22.5117 1.85714H23.1546V2.5H22.5117V1.85714ZM22.5117 1.21429H23.1546V1.85714H22.5117V1.21429ZM22.5117 3.14286H23.1546V3.78571H22.5117V3.14286ZM22.5117 3.78571H23.1546V4.42857H22.5117V3.78571ZM22.5117 4.42857H23.1546V5.07143H22.5117V4.42857ZM22.5117 5.07143H23.1546V5.71429H22.5117V5.07143ZM22.5117 5.71429H23.1546V6.35714H22.5117V5.71429ZM22.5117 6.35714H23.1546V7H22.5117V6.35714ZM23.1546 6.35714H23.7974V7H23.1546V6.35714ZM23.1546 5.71429H23.7974V6.35714H23.1546V5.71429ZM23.1546 5.07143H23.7974V5.71429H23.1546V5.07143ZM23.1546 4.42857H23.7974V5.07143H23.1546V4.42857ZM23.1546 3.78571H23.7974V4.42857H23.1546V3.78571ZM23.1546 3.14286H23.7974V3.78571H23.1546V3.14286ZM23.7974 3.78571H24.4403V4.42857H23.7974V3.78571ZM24.4403 3.78571H25.0831V4.42857H24.4403V3.78571ZM24.4403 3.14286H25.0831V3.78571H24.4403V3.14286ZM25.0831 3.14286H25.726V3.78571H25.0831V3.14286ZM25.0831 2.5H25.726V3.14286H25.0831V2.5ZM25.0831 1.85714H25.726V2.5H25.0831V1.85714ZM25.726 1.85714H26.3689V2.5H25.726V1.85714ZM25.726 2.5H26.3689V3.14286H25.726V2.5ZM24.4403 4.42857H25.0831V5.07143H24.4403V4.42857ZM25.0831 4.42857H25.726V5.07143H25.0831V4.42857ZM25.726 5.07143H26.3689V5.71429H25.726V5.07143ZM25.0831 5.07143H25.726V5.71429H25.0831V5.07143ZM25.0831 5.71429H25.726V6.35714H25.0831V5.71429ZM25.726 5.71429H26.3689V6.35714H25.726V5.71429ZM25.726 6.35714H26.3689V7H25.726V6.35714ZM25.0831 6.35714H25.726V7H25.0831V6.35714ZM29.5781 0.571429H30.221V1.21429H29.5781V0.571429ZM30.221 0.571429H30.8638V1.21429H30.221V0.571429ZM30.221 1.21429H30.8638V1.85714H30.221V1.21429ZM30.221 1.85714H30.8638V2.5H30.221V1.85714ZM29.5781 1.85714H30.221V2.5H29.5781V1.85714ZM29.5781 1.21429H30.221V1.85714H29.5781V1.21429ZM29.5781 2.5H30.221V3.14286H29.5781V2.5ZM29.5781 3.14286H30.221V3.78571H29.5781V3.14286ZM30.221 3.14286H30.8638V3.78571H30.221V3.14286ZM30.221 2.5H30.8638V3.14286H30.221V2.5ZM30.221 3.78571H30.8638V4.42857H30.221V3.78571ZM30.8638 3.78571H31.5067V4.42857H30.8638V3.78571ZM30.8638 3.14286H31.5067V3.78571H30.8638V3.14286ZM30.8638 4.42857H31.5067V5.07143H30.8638V4.42857ZM31.5067 4.42857H32.1496V5.07143H31.5067V4.42857ZM31.5067 3.78571H32.1496V4.42857H31.5067V3.78571ZM32.1496 3.78571H32.7924V4.42857H32.1496V3.78571ZM32.1496 4.42857H32.7924V5.07143H32.1496V4.42857ZM32.7924 4.42857H33.4353V5.07143H32.7924V4.42857ZM32.7924 3.78571H33.4353V4.42857H32.7924V3.78571ZM32.7924 3.14286H33.4353V3.78571H32.7924V3.14286ZM33.4353 3.14286H34.0781V3.78571H33.4353V3.14286ZM33.4353 3.78571H34.0781V4.42857H33.4353V3.78571ZM33.4353 2.5H34.0781V3.14286H33.4353V2.5ZM33.4353 1.85714H34.0781V2.5H33.4353V1.85714ZM33.4353 1.21429H34.0781V1.85714H33.4353V1.21429ZM33.4353 0.571429H34.0781V1.21429H33.4353V0.571429ZM34.0781 0.571429H34.721V1.21429H34.0781V0.571429ZM34.0781 1.21429H34.721V1.85714H34.0781V1.21429ZM34.0781 1.85714H34.721V2.5H34.0781V1.85714ZM34.0781 2.5H34.721V3.14286H34.0781V2.5ZM34.0781 3.14286H34.721V3.78571H34.0781V3.14286ZM31.5067 5.07143H32.1496V5.71429H31.5067V5.07143ZM31.5067 5.71429H32.1496V6.35714H31.5067V5.71429ZM31.5067 6.35714H32.1496V7H31.5067V6.35714ZM32.1496 6.35714H32.7924V7H32.1496V6.35714ZM32.1496 5.71429H32.7924V6.35714H32.1496V5.71429ZM32.1496 5.07143H32.7924V5.71429H32.1496V5.07143ZM36.6529 1.85714H37.2958V2.5H36.6529V1.85714ZM36.01 1.85714H36.6529V2.5H36.01V1.85714ZM36.01 2.5H36.6529V3.14286H36.01V2.5ZM36.6529 2.5H37.2958V3.14286H36.6529V2.5ZM37.2958 1.85714H37.9386V2.5H37.2958V1.85714ZM37.9386 1.85714H38.5815V2.5H37.9386V1.85714ZM38.5815 1.85714H39.2243V2.5H38.5815V1.85714ZM38.5815 2.5H39.2243V3.14286H38.5815V2.5ZM37.9386 2.5H38.5815V3.14286H37.9386V2.5ZM38.5815 3.78571H39.2243V4.42857H38.5815V3.78571ZM39.2243 2.5H39.8672V3.14286H39.2243V2.5ZM39.2243 3.14286H39.8672V3.78571H39.2243V3.14286ZM39.2243 3.78571H39.8672V4.42857H39.2243V3.78571ZM39.2243 4.42857H39.8672V5.07143H39.2243V4.42857ZM39.2243 5.07143H39.8672V5.71429H39.2243V5.07143ZM39.2243 5.71429H39.8672V6.35714H39.2243V5.71429ZM38.5815 5.71429H39.2243V6.35714H38.5815V5.71429ZM38.5815 5.07143H39.2243V5.71429H38.5815V5.07143ZM38.5815 4.42857H39.2243V5.07143H38.5815V4.42857ZM38.5815 3.14286H39.2243V3.78571H38.5815V3.14286ZM37.9386 5.71429H38.5815V6.35714H37.9386V5.71429ZM38.5815 6.35714H39.2243V7H38.5815V6.35714ZM37.9386 6.35714H38.5815V7H37.9386V6.35714ZM37.2958 6.35714H37.9386V7H37.2958V6.35714ZM36.6529 6.35714H37.2958V7H36.6529V6.35714ZM36.01 6.35714H36.6529V7H36.01V6.35714ZM36.01 5.71429H36.6529V6.35714H36.01V5.71429ZM36.6529 5.71429H37.2958V6.35714H36.6529V5.71429ZM36.01 5.07143H36.6529V5.71429H36.01V5.07143ZM35.3672 5.71429H36.01V6.35714H35.3672V5.71429ZM35.3672 5.07143H36.01V5.71429H35.3672V5.07143ZM35.3672 4.42857H36.01V5.07143H35.3672V4.42857ZM35.3672 3.78571H36.01V4.42857H35.3672V3.78571ZM35.3672 3.14286H36.01V3.78571H35.3672V3.14286ZM35.3672 2.5H36.01V3.14286H35.3672V2.5ZM36.01 3.14286H36.6529V3.78571H36.01V3.14286ZM36.01 3.78571H36.6529V4.42857H36.01V3.78571ZM36.01 4.42857H36.6529V5.07143H36.01V4.42857ZM37.2958 5.71429H37.9386V6.35714H37.2958V5.71429ZM37.2958 2.5H37.9386V3.14286H37.2958V2.5ZM45.0117 6.35714H44.3689V5.71429H45.0117V6.35714ZM45.0117 7H44.3689V6.35714H45.0117V7ZM44.3689 7H43.726V6.35714H44.3689V7ZM44.3689 6.35714H43.726V5.71429H44.3689V6.35714ZM44.3689 5.71429H43.726V5.07143H44.3689V5.71429ZM44.3689 5.07143H43.726V4.42857H44.3689V5.07143ZM44.3689 4.42857H43.726V3.78571H44.3689V4.42857ZM45.0117 4.42857H44.3689V3.78571H45.0117V4.42857ZM45.0117 5.07143H44.3689V4.42857H45.0117V5.07143ZM45.0117 5.71429H44.3689V5.07143H45.0117V5.71429ZM45.0117 3.78571H44.3689V3.14286H45.0117V3.78571ZM44.3689 3.78571H43.726V3.14286H44.3689V3.78571ZM44.3689 3.14286H43.726V2.5H44.3689V3.14286ZM44.3689 2.5H43.726V1.85714H44.3689V2.5ZM45.0117 2.5H44.3689V1.85714H45.0117V2.5ZM45.0117 3.14286H44.3689V2.5H45.0117V3.14286ZM41.7974 2.5H41.1546V1.85714H41.7974V2.5ZM41.1546 2.5H40.5117V1.85714H41.1546V2.5ZM41.1546 3.14286H40.5117V2.5H41.1546V3.14286ZM41.1546 3.78571H40.5117V3.14286H41.1546V3.78571ZM41.1546 4.42857H40.5117V3.78571H41.1546V4.42857ZM41.1546 5.07143H40.5117V4.42857H41.1546V5.07143ZM41.1546 5.71429H40.5117V5.07143H41.1546V5.71429ZM41.1546 6.35714H40.5117V5.71429H41.1546V6.35714ZM41.7974 5.07143H41.1546V4.42857H41.7974V5.07143ZM41.7974 4.42857H41.1546V3.78571H41.7974V4.42857ZM41.7974 3.78571H41.1546V3.14286H41.7974V3.78571ZM41.7974 3.14286H41.1546V2.5H41.7974V3.14286ZM41.7974 5.71429H41.1546V5.07143H41.7974V5.71429ZM43.726 6.35714H43.0831V5.71429H43.726V6.35714ZM43.0831 6.35714H42.4403V5.71429H43.0831V6.35714ZM42.4403 6.35714H41.7974V5.71429H42.4403V6.35714ZM42.4403 7H41.7974V6.35714H42.4403V7ZM41.7974 7H41.1546V6.35714H41.7974V7ZM41.7974 6.35714H41.1546V5.71429H41.7974V6.35714ZM43.0831 7H42.4403V6.35714H43.0831V7ZM45.6562 2.5H46.2991V3.14286H45.6562V2.5ZM45.6562 1.85714H46.2991V2.5H45.6562V1.85714ZM46.2991 1.85714H46.942V2.5H46.2991V1.85714ZM46.2991 2.5H46.942V3.14286H46.2991V2.5ZM46.2991 3.14286H46.942V3.78571H46.2991V3.14286ZM46.2991 3.78571H46.942V4.42857H46.2991V3.78571ZM46.2991 4.42857H46.942V5.07143H46.2991V4.42857ZM45.6562 4.42857H46.2991V5.07143H45.6562V4.42857ZM45.6562 3.78571H46.2991V4.42857H45.6562V3.78571ZM45.6562 3.14286H46.2991V3.78571H45.6562V3.14286ZM45.6562 5.07143H46.2991V5.71429H45.6562V5.07143ZM46.2991 5.07143H46.942V5.71429H46.2991V5.07143ZM46.2991 5.71429H46.942V6.35714H46.2991V5.71429ZM46.2991 6.35714H46.942V7H46.2991V6.35714ZM45.6562 6.35714H46.2991V7H45.6562V6.35714ZM45.6562 5.71429H46.2991V6.35714H45.6562V5.71429ZM46.942 2.5H47.5848V3.14286H46.942V2.5ZM47.5848 2.5H48.2277V3.14286H47.5848V2.5ZM48.2277 2.5H48.8705V3.14286H48.2277V2.5ZM48.2277 1.85714H48.8705V2.5H48.2277V1.85714ZM47.5848 1.85714H48.2277V2.5H47.5848V1.85714ZM46.942 3.14286H47.5848V3.78571H46.942V3.14286ZM48.8705 2.5H49.5134V3.14286H48.8705V2.5ZM48.2277 3.14286H48.8705V3.78571H48.2277V3.14286ZM54.0084 0.571429H54.6512V1.21429H54.0084V0.571429ZM53.3655 0.571429H54.0084V1.21429H53.3655V0.571429ZM53.3655 1.21429H54.0084V1.85714H53.3655V1.21429ZM54.0084 1.21429H54.6512V1.85714H54.0084V1.21429ZM54.6512 1.21429H55.2941V1.85714H54.6512V1.21429ZM54.6512 0.571429H55.2941V1.21429H54.6512V0.571429ZM55.2941 0.571429H55.9369V1.21429H55.2941V0.571429ZM55.9369 0.571429H56.5798V1.21429H55.9369V0.571429ZM55.9369 1.21429H56.5798V1.85714H55.9369V1.21429ZM55.2941 1.21429H55.9369V1.85714H55.2941V1.21429ZM55.9369 1.85714H56.5798V2.5H55.9369V1.85714ZM56.5798 1.21429H57.2227V1.85714H56.5798V1.21429ZM56.5798 1.85714H57.2227V2.5H56.5798V1.85714ZM56.5798 5.07143H57.2227V5.71429H56.5798V5.07143ZM56.5798 5.71429H57.2227V6.35714H56.5798V5.71429ZM55.9369 5.71429H56.5798V6.35714H55.9369V5.71429ZM55.9369 5.07143H56.5798V5.71429H55.9369V5.07143ZM55.2941 5.71429H55.9369V6.35714H55.2941V5.71429ZM55.9369 6.35714H56.5798V7H55.9369V6.35714ZM55.2941 6.35714H55.9369V7H55.2941V6.35714ZM54.6512 6.35714H55.2941V7H54.6512V6.35714ZM54.6512 5.71429H55.2941V6.35714H54.6512V5.71429ZM54.0084 6.35714H54.6512V7H54.0084V6.35714ZM53.3655 6.35714H54.0084V7H53.3655V6.35714ZM53.3655 5.71429H54.0084V6.35714H53.3655V5.71429ZM54.0084 5.71429H54.6512V6.35714H54.0084V5.71429ZM54.0084 5.07143H54.6512V5.71429H54.0084V5.07143ZM53.3655 5.07143H54.0084V5.71429H53.3655V5.07143ZM52.7227 5.71429H53.3655V6.35714H52.7227V5.71429ZM52.7227 5.07143H53.3655V5.71429H52.7227V5.07143ZM52.7227 4.42857H53.3655V5.07143H52.7227V4.42857ZM52.7227 3.78571H53.3655V4.42857H52.7227V3.78571ZM52.7227 3.14286H53.3655V3.78571H52.7227V3.14286ZM52.7227 2.5H53.3655V3.14286H52.7227V2.5ZM52.7227 1.85714H53.3655V2.5H52.7227V1.85714ZM53.3655 1.85714H54.0084V2.5H53.3655V1.85714ZM52.7227 1.21429H53.3655V1.85714H52.7227V1.21429ZM54.0084 1.85714H54.6512V2.5H54.0084V1.85714ZM53.3655 2.5H54.0084V3.14286H53.3655V2.5ZM53.3655 3.14286H54.0084V3.78571H53.3655V3.14286ZM53.3655 3.78571H54.0084V4.42857H53.3655V3.78571ZM53.3655 4.42857H54.0084V5.07143H53.3655V4.42857ZM59.1529 1.85714H59.7958V2.5H59.1529V1.85714ZM58.51 1.85714H59.1529V2.5H58.51V1.85714ZM58.51 2.5H59.1529V3.14286H58.51V2.5ZM59.1529 2.5H59.7958V3.14286H59.1529V2.5ZM59.7958 1.85714H60.4386V2.5H59.7958V1.85714ZM60.4386 1.85714H61.0815V2.5H60.4386V1.85714ZM61.0815 1.85714H61.7243V2.5H61.0815V1.85714ZM61.0815 2.5H61.7243V3.14286H61.0815V2.5ZM60.4386 2.5H61.0815V3.14286H60.4386V2.5ZM61.0815 3.78571H61.7243V4.42857H61.0815V3.78571ZM61.7243 2.5H62.3672V3.14286H61.7243V2.5ZM61.7243 3.14286H62.3672V3.78571H61.7243V3.14286ZM61.7243 3.78571H62.3672V4.42857H61.7243V3.78571ZM61.7243 4.42857H62.3672V5.07143H61.7243V4.42857ZM61.7243 5.07143H62.3672V5.71429H61.7243V5.07143ZM61.7243 5.71429H62.3672V6.35714H61.7243V5.71429ZM61.0815 5.71429H61.7243V6.35714H61.0815V5.71429ZM61.0815 5.07143H61.7243V5.71429H61.0815V5.07143ZM61.0815 4.42857H61.7243V5.07143H61.0815V4.42857ZM61.0815 3.14286H61.7243V3.78571H61.0815V3.14286ZM60.4386 5.71429H61.0815V6.35714H60.4386V5.71429ZM61.0815 6.35714H61.7243V7H61.0815V6.35714ZM60.4386 6.35714H61.0815V7H60.4386V6.35714ZM59.7958 6.35714H60.4386V7H59.7958V6.35714ZM59.1529 6.35714H59.7958V7H59.1529V6.35714ZM58.51 6.35714H59.1529V7H58.51V6.35714ZM58.51 5.71429H59.1529V6.35714H58.51V5.71429ZM59.1529 5.71429H59.7958V6.35714H59.1529V5.71429ZM58.51 5.07143H59.1529V5.71429H58.51V5.07143ZM57.8672 5.71429H58.51V6.35714H57.8672V5.71429ZM57.8672 5.07143H58.51V5.71429H57.8672V5.07143ZM57.8672 4.42857H58.51V5.07143H57.8672V4.42857ZM57.8672 3.78571H58.51V4.42857H57.8672V3.78571ZM57.8672 3.14286H58.51V3.78571H57.8672V3.14286ZM57.8672 2.5H58.51V3.14286H57.8672V2.5ZM58.51 3.14286H59.1529V3.78571H58.51V3.14286ZM58.51 3.78571H59.1529V4.42857H58.51V3.78571ZM58.51 4.42857H59.1529V5.07143H58.51V4.42857ZM59.7958 5.71429H60.4386V6.35714H59.7958V5.71429ZM59.7958 2.5H60.4386V3.14286H59.7958V2.5ZM67.5117 2.5V3.14286H66.8689V2.5H67.5117ZM67.5117 1.85714V2.5H66.8689V1.85714H67.5117ZM66.8689 1.85714V2.5H66.226V1.85714H66.8689ZM66.8689 2.5V3.14286H66.226V2.5H66.8689ZM66.8689 3.14286V3.78571H66.226V3.14286H66.8689ZM66.8689 3.78571V4.42857H66.226V3.78571H66.8689ZM66.8689 4.42857V5.07143H66.226V4.42857H66.8689ZM67.5117 4.42857V5.07143H66.8689V4.42857H67.5117ZM67.5117 3.78571V4.42857H66.8689V3.78571H67.5117ZM67.5117 3.14286V3.78571H66.8689V3.14286H67.5117ZM67.5117 5.07143V5.71429H66.8689V5.07143H67.5117ZM66.8689 5.07143V5.71429H66.226V5.07143H66.8689ZM66.8689 5.71429V6.35714H66.226V5.71429H66.8689ZM66.8689 6.35714V7H66.226V6.35714H66.8689ZM67.5117 6.35714V7H66.8689V6.35714H67.5117ZM67.5117 5.71429V6.35714H66.8689V5.71429H67.5117ZM64.2974 6.35714V7H63.6546V6.35714H64.2974ZM63.6546 5.71429V6.35714H63.0117V5.71429H63.6546ZM63.6546 5.07143V5.71429H63.0117V5.07143H63.6546ZM63.6546 4.42857V5.07143H63.0117V4.42857H63.6546ZM63.6546 3.78571V4.42857H63.0117V3.78571H63.6546ZM63.6546 3.14286V3.78571H63.0117V3.14286H63.6546ZM63.6546 2.5V3.14286H63.0117V2.5H63.6546ZM64.2974 3.78571V4.42857H63.6546V3.78571H64.2974ZM64.2974 4.42857V5.07143H63.6546V4.42857H64.2974ZM64.2974 5.07143V5.71429H63.6546V5.07143H64.2974ZM64.2974 5.71429V6.35714H63.6546V5.71429H64.2974ZM64.2974 3.14286V3.78571H63.6546V3.14286H64.2974ZM64.9403 2.5V3.14286H64.2974V2.5H64.9403ZM64.9403 1.85714V2.5H64.2974V1.85714H64.9403ZM64.2974 1.85714V2.5H63.6546V1.85714H64.2974ZM64.2974 2.5V3.14286H63.6546V2.5H64.2974ZM65.5831 1.85714V2.5H64.9403V1.85714H65.5831ZM67.5117 0.571429V1.21429H66.8689V0.571429H67.5117ZM66.8689 0.571429V1.21429H66.226V0.571429H66.8689ZM66.8689 1.21429V1.85714H66.226V1.21429H66.8689ZM67.5117 1.21429V1.85714H66.8689V1.21429H67.5117ZM65.5831 6.35714V7H64.9403V6.35714H65.5831ZM64.9403 6.35714V7H64.2974V6.35714H64.9403ZM64.9403 5.71429V6.35714H64.2974V5.71429H64.9403ZM65.5831 5.71429V6.35714H64.9403V5.71429H65.5831ZM66.226 5.71429V6.35714H65.5831V5.71429H66.226ZM66.226 1.85714V2.5H65.5831V1.85714H66.226ZM66.226 2.5V3.14286H65.5831V2.5H66.226ZM65.5831 2.5V3.14286H64.9403V2.5H65.5831ZM68.1562 0.571429H69.442V1.85714H68.1562V0.571429ZM68.1562 2.5H69.442V7H68.1562V2.5ZM70.0898 2.5H70.7327V3.14286H70.0898V2.5ZM70.0898 1.85714H70.7327V2.5H70.0898V1.85714ZM70.7327 1.85714H71.3756V2.5H70.7327V1.85714ZM70.7327 2.5H71.3756V3.14286H70.7327V2.5ZM70.7327 3.14286H71.3756V3.78571H70.7327V3.14286ZM70.7327 3.78571H71.3756V4.42857H70.7327V3.78571ZM70.7327 4.42857H71.3756V5.07143H70.7327V4.42857ZM70.0898 4.42857H70.7327V5.07143H70.0898V4.42857ZM70.0898 3.78571H70.7327V4.42857H70.0898V3.78571ZM70.0898 3.14286H70.7327V3.78571H70.0898V3.14286ZM70.0898 5.07143H70.7327V5.71429H70.0898V5.07143ZM70.7327 5.07143H71.3756V5.71429H70.7327V5.07143ZM70.7327 5.71429H71.3756V6.35714H70.7327V5.71429ZM70.7327 6.35714H71.3756V7H70.7327V6.35714ZM70.0898 6.35714H70.7327V7H70.0898V6.35714ZM70.0898 5.71429H70.7327V6.35714H70.0898V5.71429ZM73.3041 6.35714H73.947V7H73.3041V6.35714ZM73.947 6.35714H74.5898V7H73.947V6.35714ZM73.947 5.71429H74.5898V6.35714H73.947V5.71429ZM73.947 5.07143H74.5898V5.71429H73.947V5.07143ZM73.947 4.42857H74.5898V5.07143H73.947V4.42857ZM73.947 3.78571H74.5898V4.42857H73.947V3.78571ZM73.947 3.14286H74.5898V3.78571H73.947V3.14286ZM73.947 2.5H74.5898V3.14286H73.947V2.5ZM73.3041 3.78571H73.947V4.42857H73.3041V3.78571ZM73.3041 4.42857H73.947V5.07143H73.3041V4.42857ZM73.3041 5.07143H73.947V5.71429H73.3041V5.07143ZM73.3041 5.71429H73.947V6.35714H73.3041V5.71429ZM73.3041 3.14286H73.947V3.78571H73.3041V3.14286ZM71.3756 2.5H72.0184V3.14286H71.3756V2.5ZM72.0184 2.5H72.6613V3.14286H72.0184V2.5ZM72.6613 2.5H73.3041V3.14286H72.6613V2.5ZM72.6613 1.85714H73.3041V2.5H72.6613V1.85714ZM73.3041 1.85714H73.947V2.5H73.3041V1.85714ZM73.3041 2.5H73.947V3.14286H73.3041V2.5ZM72.0184 1.85714H72.6613V2.5H72.0184V1.85714ZM79.0915 1.85714H79.7344V2.5H79.0915V1.85714ZM78.4487 1.85714H79.0915V2.5H78.4487V1.85714ZM77.8058 1.85714H78.4487V2.5H77.8058V1.85714ZM77.1629 1.85714H77.8058V2.5H77.1629V1.85714ZM76.5201 1.85714H77.1629V2.5H76.5201V1.85714ZM76.5201 2.5H77.1629V3.14286H76.5201V2.5ZM77.1629 2.5H77.8058V3.14286H77.1629V2.5ZM77.8058 2.5H78.4487V3.14286H77.8058V2.5ZM78.4487 2.5H79.0915V3.14286H78.4487V2.5ZM79.0915 2.5H79.7344V3.14286H79.0915V2.5ZM75.8772 1.85714H76.5201V2.5H75.8772V1.85714ZM75.8772 2.5H76.5201V3.14286H75.8772V2.5ZM75.8772 3.14286H76.5201V3.78571H75.8772V3.14286ZM75.2344 3.14286H75.8772V3.78571H75.2344V3.14286ZM75.2344 2.5H75.8772V3.14286H75.2344V2.5ZM75.2344 3.78571H75.8772V4.42857H75.2344V3.78571ZM75.2344 4.42857H75.8772V5.07143H75.2344V4.42857ZM75.8772 5.07143H76.5201V5.71429H75.8772V5.07143ZM75.8772 4.42857H76.5201V5.07143H75.8772V4.42857ZM75.8772 3.78571H76.5201V4.42857H75.8772V3.78571ZM75.2344 5.07143H75.8772V5.71429H75.2344V5.07143ZM75.8772 5.71429H76.5201V6.35714H75.8772V5.71429ZM76.5201 5.71429H77.1629V6.35714H76.5201V5.71429ZM77.1629 5.71429H77.8058V6.35714H77.1629V5.71429ZM78.4487 5.71429H79.0915V6.35714H78.4487V5.71429ZM79.0915 5.71429H79.7344V6.35714H79.0915V5.71429ZM79.0915 5.07143H79.7344V5.71429H79.0915V5.07143ZM78.4487 5.07143H79.0915V5.71429H78.4487V5.07143ZM77.8058 5.07143H78.4487V5.71429H77.8058V5.07143ZM77.1629 5.07143H77.8058V5.71429H77.1629V5.07143ZM76.5201 5.07143H77.1629V5.71429H76.5201V5.07143ZM78.4487 4.42857H79.0915V5.07143H78.4487V4.42857ZM78.4487 3.78571H79.0915V4.42857H78.4487V3.78571ZM78.4487 3.14286H79.0915V3.78571H78.4487V3.14286ZM79.0915 3.14286H79.7344V3.78571H79.0915V3.14286ZM79.0915 3.78571H79.7344V4.42857H79.0915V3.78571ZM79.0915 4.42857H79.7344V5.07143H79.0915V4.42857ZM78.4487 6.35714H79.0915V7H78.4487V6.35714ZM78.4487 7H79.0915V7.64286H78.4487V7ZM79.0915 7H79.7344V7.64286H79.0915V7ZM79.0915 6.35714H79.7344V7H79.0915V6.35714ZM75.2344 7H75.8772V7.64286H75.2344V7ZM75.8772 7H76.5201V7.64286H75.8772V7ZM75.8772 7.64286H76.5201V8.28571H75.8772V7.64286ZM76.5201 7.64286H77.1629V8.28571H76.5201V7.64286ZM76.5201 7H77.1629V7.64286H76.5201V7ZM77.1629 7H77.8058V7.64286H77.1629V7ZM77.8058 7H78.4487V7.64286H77.8058V7ZM78.4487 7.64286H79.0915V8.28571H78.4487V7.64286ZM77.8058 7.64286H78.4487V8.28571H77.8058V7.64286ZM77.1629 7.64286H77.8058V8.28571H77.1629V7.64286ZM82.9453 0.571429H83.5882V1.21429H82.9453V0.571429ZM83.5882 0.571429H84.231V1.21429H83.5882V0.571429ZM84.231 0.571429H84.8739V1.21429H84.231V0.571429ZM84.8739 0.571429H85.5167V1.21429H84.8739V0.571429ZM85.5167 0.571429H86.1596V1.21429H85.5167V0.571429ZM86.1596 0.571429H86.8025V1.21429H86.1596V0.571429ZM86.1596 1.21429H86.8025V1.85714H86.1596V1.21429ZM85.5167 1.21429H86.1596V1.85714H85.5167V1.21429ZM84.8739 1.21429H85.5167V1.85714H84.8739V1.21429ZM84.231 1.21429H84.8739V1.85714H84.231V1.21429ZM83.5882 1.21429H84.231V1.85714H83.5882V1.21429ZM82.9453 1.21429H83.5882V1.85714H82.9453V1.21429ZM86.8025 1.21429H87.4453V1.85714H86.8025V1.21429ZM86.1596 1.85714H86.8025V2.5H86.1596V1.85714ZM86.8025 1.85714H87.4453V2.5H86.8025V1.85714ZM86.8025 2.5H87.4453V3.14286H86.8025V2.5ZM86.8025 3.14286H87.4453V3.78571H86.8025V3.14286ZM86.1596 3.14286H86.8025V3.78571H86.1596V3.14286ZM86.1596 2.5H86.8025V3.14286H86.1596V2.5ZM86.1596 3.78571H86.8025V4.42857H86.1596V3.78571ZM86.1596 4.42857H86.8025V5.07143H86.1596V4.42857ZM85.5167 4.42857H86.1596V5.07143H85.5167V4.42857ZM85.5167 3.78571H86.1596V4.42857H85.5167V3.78571ZM84.8739 3.78571H85.5167V4.42857H84.8739V3.78571ZM84.8739 4.42857H85.5167V5.07143H84.8739V4.42857ZM84.231 4.42857H84.8739V5.07143H84.231V4.42857ZM84.231 3.78571H84.8739V4.42857H84.231V3.78571ZM83.5882 3.78571H84.231V4.42857H83.5882V3.78571ZM82.9453 3.78571H83.5882V4.42857H82.9453V3.78571ZM82.9453 4.42857H83.5882V5.07143H82.9453V4.42857ZM83.5882 4.42857H84.231V5.07143H83.5882V4.42857ZM82.9453 1.85714H83.5882V2.5H82.9453V1.85714ZM83.5882 1.85714H84.231V2.5H83.5882V1.85714ZM83.5882 2.5H84.231V3.14286H83.5882V2.5ZM83.5882 3.14286H84.231V3.78571H83.5882V3.14286ZM82.9453 2.5H83.5882V3.14286H82.9453V2.5ZM82.9453 3.14286H83.5882V3.78571H82.9453V3.14286ZM82.9453 5.07143H83.5882V5.71429H82.9453V5.07143ZM83.5882 5.07143H84.231V5.71429H83.5882V5.07143ZM83.5882 5.71429H84.231V6.35714H83.5882V5.71429ZM83.5882 6.35714H84.231V7H83.5882V6.35714ZM82.9453 6.35714H83.5882V7H82.9453V6.35714ZM82.9453 5.71429H83.5882V6.35714H82.9453V5.71429ZM86.8025 3.78571H87.4453V4.42857H86.8025V3.78571ZM89.3756 1.85714H90.0184V2.5H89.3756V1.85714ZM88.7327 1.85714H89.3756V2.5H88.7327V1.85714ZM88.7327 2.5H89.3756V3.14286H88.7327V2.5ZM89.3756 2.5H90.0184V3.14286H89.3756V2.5ZM90.0184 1.85714H90.6613V2.5H90.0184V1.85714ZM90.6613 1.85714H91.3041V2.5H90.6613V1.85714ZM91.3041 1.85714H91.947V2.5H91.3041V1.85714ZM91.3041 2.5H91.947V3.14286H91.3041V2.5ZM90.6613 2.5H91.3041V3.14286H90.6613V2.5ZM91.3041 3.78571H91.947V4.42857H91.3041V3.78571ZM91.947 2.5H92.5898V3.14286H91.947V2.5ZM91.947 3.14286H92.5898V3.78571H91.947V3.14286ZM91.947 3.78571H92.5898V4.42857H91.947V3.78571ZM91.947 4.42857H92.5898V5.07143H91.947V4.42857ZM91.947 5.07143H92.5898V5.71429H91.947V5.07143ZM91.947 5.71429H92.5898V6.35714H91.947V5.71429ZM91.3041 5.71429H91.947V6.35714H91.3041V5.71429ZM91.3041 5.07143H91.947V5.71429H91.3041V5.07143ZM91.3041 4.42857H91.947V5.07143H91.3041V4.42857ZM91.3041 3.14286H91.947V3.78571H91.3041V3.14286ZM90.6613 5.71429H91.3041V6.35714H90.6613V5.71429ZM91.3041 6.35714H91.947V7H91.3041V6.35714ZM90.6613 6.35714H91.3041V7H90.6613V6.35714ZM90.0184 6.35714H90.6613V7H90.0184V6.35714ZM89.3756 6.35714H90.0184V7H89.3756V6.35714ZM88.7327 6.35714H89.3756V7H88.7327V6.35714ZM88.7327 5.71429H89.3756V6.35714H88.7327V5.71429ZM89.3756 5.71429H90.0184V6.35714H89.3756V5.71429ZM88.7327 5.07143H89.3756V5.71429H88.7327V5.07143ZM88.0898 5.71429H88.7327V6.35714H88.0898V5.71429ZM88.0898 5.07143H88.7327V5.71429H88.0898V5.07143ZM88.0898 4.42857H88.7327V5.07143H88.0898V4.42857ZM88.0898 3.78571H88.7327V4.42857H88.0898V3.78571ZM88.0898 3.14286H88.7327V3.78571H88.0898V3.14286ZM88.0898 2.5H88.7327V3.14286H88.0898V2.5ZM88.7327 3.14286H89.3756V3.78571H88.7327V3.14286ZM88.7327 3.78571H89.3756V4.42857H88.7327V3.78571ZM88.7327 4.42857H89.3756V5.07143H88.7327V4.42857ZM90.0184 5.71429H90.6613V6.35714H90.0184V5.71429ZM90.0184 2.5H90.6613V3.14286H90.0184V2.5ZM95.8058 5.71429H96.4487V6.35714H95.8058V5.71429ZM95.8058 6.35714H96.4487V7H95.8058V6.35714ZM95.1629 6.35714H95.8058V7H95.1629V6.35714ZM95.1629 5.71429H95.8058V6.35714H95.1629V5.71429ZM94.5201 6.35714H95.1629V7H94.5201V6.35714ZM94.5201 5.71429H95.1629V6.35714H94.5201V5.71429ZM93.8772 5.71429H94.5201V6.35714H93.8772V5.71429ZM93.8772 5.07143H94.5201V5.71429H93.8772V5.07143ZM93.8772 4.42857H94.5201V5.07143H93.8772V4.42857ZM93.8772 3.78571H94.5201V4.42857H93.8772V3.78571ZM93.8772 3.14286H94.5201V3.78571H93.8772V3.14286ZM93.8772 2.5H94.5201V3.14286H93.8772V2.5ZM94.5201 4.42857H95.1629V5.07143H94.5201V4.42857ZM94.5201 5.07143H95.1629V5.71429H94.5201V5.07143ZM94.5201 3.78571H95.1629V4.42857H94.5201V3.78571ZM94.5201 3.14286H95.1629V3.78571H94.5201V3.14286ZM94.5201 0.571429H95.1629V1.21429H94.5201V0.571429ZM94.5201 1.21429H95.1629V1.85714H94.5201V1.21429ZM94.5201 1.85714H95.1629V2.5H94.5201V1.85714ZM94.5201 2.5H95.1629V3.14286H94.5201V2.5ZM93.8772 1.85714H94.5201V2.5H93.8772V1.85714ZM93.2344 2.5H93.8772V3.14286H93.2344V2.5ZM95.1629 2.5H95.8058V3.14286H95.1629V2.5ZM95.8058 2.5H96.4487V3.14286H95.8058V2.5ZM93.8772 1.21429H94.5201V1.85714H93.8772V1.21429ZM93.2344 3.14286H93.8772V3.78571H93.2344V3.14286ZM95.1629 3.14286H95.8058V3.78571H95.1629V3.14286ZM95.8058 3.14286H96.4487V3.78571H95.8058V3.14286ZM98.3756 1.85714H99.0184V2.5H98.3756V1.85714ZM97.7327 1.85714H98.3756V2.5H97.7327V1.85714ZM97.7327 2.5H98.3756V3.14286H97.7327V2.5ZM98.3756 2.5H99.0184V3.14286H98.3756V2.5ZM99.0184 1.85714H99.6613V2.5H99.0184V1.85714ZM99.6613 1.85714H100.304V2.5H99.6613V1.85714ZM100.304 1.85714H100.947V2.5H100.304V1.85714ZM100.304 2.5H100.947V3.14286H100.304V2.5ZM99.6613 2.5H100.304V3.14286H99.6613V2.5ZM100.947 2.5H101.59V3.14286H100.947V2.5ZM100.947 3.14286H101.59V3.78571H100.947V3.14286ZM100.947 5.71429H101.59V6.35714H100.947V5.71429ZM100.304 5.71429H100.947V6.35714H100.304V5.71429ZM100.304 3.14286H100.947V3.78571H100.304V3.14286ZM99.6613 5.71429H100.304V6.35714H99.6613V5.71429ZM100.304 6.35714H100.947V7H100.304V6.35714ZM99.6613 6.35714H100.304V7H99.6613V6.35714ZM99.0184 6.35714H99.6613V7H99.0184V6.35714ZM98.3756 6.35714H99.0184V7H98.3756V6.35714ZM97.7327 6.35714H98.3756V7H97.7327V6.35714ZM97.7327 5.71429H98.3756V6.35714H97.7327V5.71429ZM98.3756 5.71429H99.0184V6.35714H98.3756V5.71429ZM97.7327 5.07143H98.3756V5.71429H97.7327V5.07143ZM97.0898 5.71429H97.7327V6.35714H97.0898V5.71429ZM97.0898 5.07143H97.7327V5.71429H97.0898V5.07143ZM97.0898 4.42857H97.7327V5.07143H97.0898V4.42857ZM97.0898 3.78571H97.7327V4.42857H97.0898V3.78571ZM97.0898 3.14286H97.7327V3.78571H97.0898V3.14286ZM97.0898 2.5H97.7327V3.14286H97.0898V2.5ZM97.7327 3.14286H98.3756V3.78571H97.7327V3.14286ZM97.7327 3.78571H98.3756V4.42857H97.7327V3.78571ZM97.7327 4.42857H98.3756V5.07143H97.7327V4.42857ZM99.0184 5.71429H99.6613V6.35714H99.0184V5.71429ZM99.0184 2.5H99.6613V3.14286H99.0184V2.5ZM100.304 3.78571H100.947V4.42857H100.304V3.78571ZM100.947 3.78571H101.59V4.42857H100.947V3.78571ZM98.3756 4.42857H99.0184V5.07143H98.3756V4.42857ZM99.0184 4.42857H99.6613V5.07143H99.0184V4.42857ZM99.6613 4.42857H100.304V5.07143H99.6613V4.42857ZM100.304 4.42857H100.947V5.07143H100.304V4.42857ZM100.947 4.42857H101.59V5.07143H100.947V4.42857ZM99.6613 3.78571H100.304V4.42857H99.6613V3.78571ZM99.0184 3.78571H99.6613V4.42857H99.0184V3.78571ZM98.3756 3.78571H99.0184V4.42857H98.3756V3.78571ZM102.234 2.5H102.877V3.14286H102.234V2.5ZM102.234 1.85714H102.877V2.5H102.234V1.85714ZM102.877 1.85714H103.52V2.5H102.877V1.85714ZM102.877 2.5H103.52V3.14286H102.877V2.5ZM102.877 3.14286H103.52V3.78571H102.877V3.14286ZM102.877 3.78571H103.52V4.42857H102.877V3.78571ZM102.877 4.42857H103.52V5.07143H102.877V4.42857ZM102.234 4.42857H102.877V5.07143H102.234V4.42857ZM102.234 3.78571H102.877V4.42857H102.234V3.78571ZM102.234 3.14286H102.877V3.78571H102.234V3.14286ZM102.234 5.07143H102.877V5.71429H102.234V5.07143ZM102.877 5.07143H103.52V5.71429H102.877V5.07143ZM102.877 5.71429H103.52V6.35714H102.877V5.71429ZM102.877 6.35714H103.52V7H102.877V6.35714ZM102.234 6.35714H102.877V7H102.234V6.35714ZM102.234 5.71429H102.877V6.35714H102.234V5.71429ZM105.449 6.35714H106.092V7H105.449V6.35714ZM106.092 6.35714H106.734V7H106.092V6.35714ZM106.092 5.71429H106.734V6.35714H106.092V5.71429ZM106.092 5.07143H106.734V5.71429H106.092V5.07143ZM106.092 4.42857H106.734V5.07143H106.092V4.42857ZM106.092 3.78571H106.734V4.42857H106.092V3.78571ZM106.092 3.14286H106.734V3.78571H106.092V3.14286ZM106.092 2.5H106.734V3.14286H106.092V2.5ZM105.449 3.78571H106.092V4.42857H105.449V3.78571ZM105.449 4.42857H106.092V5.07143H105.449V4.42857ZM105.449 5.07143H106.092V5.71429H105.449V5.07143ZM105.449 5.71429H106.092V6.35714H105.449V5.71429ZM105.449 3.14286H106.092V3.78571H105.449V3.14286ZM103.52 2.5H104.163V3.14286H103.52V2.5ZM104.163 2.5H104.806V3.14286H104.163V2.5ZM104.806 2.5H105.449V3.14286H104.806V2.5ZM104.806 1.85714H105.449V2.5H104.806V1.85714ZM105.449 1.85714H106.092V2.5H105.449V1.85714ZM105.449 2.5H106.092V3.14286H105.449V2.5ZM104.163 1.85714H104.806V2.5H104.163V1.85714ZM109.95 5.71429H110.593V6.35714H109.95V5.71429ZM109.95 6.35714H110.593V7H109.95V6.35714ZM109.307 6.35714H109.95V7H109.307V6.35714ZM109.307 5.71429H109.95V6.35714H109.307V5.71429ZM108.665 6.35714H109.307V7H108.665V6.35714ZM108.665 5.71429H109.307V6.35714H108.665V5.71429ZM108.022 5.71429H108.665V6.35714H108.022V5.71429ZM108.022 5.07143H108.665V5.71429H108.022V5.07143ZM108.022 4.42857H108.665V5.07143H108.022V4.42857ZM108.022 3.78571H108.665V4.42857H108.022V3.78571ZM108.022 3.14286H108.665V3.78571H108.022V3.14286ZM108.022 2.5H108.665V3.14286H108.022V2.5ZM108.665 4.42857H109.307V5.07143H108.665V4.42857ZM108.665 5.07143H109.307V5.71429H108.665V5.07143ZM108.665 3.78571H109.307V4.42857H108.665V3.78571ZM108.665 3.14286H109.307V3.78571H108.665V3.14286ZM108.665 0.571429H109.307V1.21429H108.665V0.571429ZM108.665 1.21429H109.307V1.85714H108.665V1.21429ZM108.665 1.85714H109.307V2.5H108.665V1.85714ZM108.665 2.5H109.307V3.14286H108.665V2.5ZM108.022 1.85714H108.665V2.5H108.022V1.85714ZM107.379 2.5H108.022V3.14286H107.379V2.5ZM109.307 2.5H109.95V3.14286H109.307V2.5ZM109.95 2.5H110.593V3.14286H109.95V2.5ZM108.022 1.21429H108.665V1.85714H108.022V1.21429ZM107.379 3.14286H108.022V3.78571H107.379V3.14286ZM109.307 3.14286H109.95V3.78571H109.307V3.14286ZM109.95 3.14286H110.593V3.78571H109.95V3.14286ZM111.234 0.571429H112.52V1.85714H111.234V0.571429ZM111.234 2.5H112.52V7H111.234V2.5ZM117.025 7H116.382V6.35714H117.025V7ZM117.025 6.35714H116.382V5.71429H117.025V6.35714ZM116.382 6.35714H115.739V5.71429H116.382V6.35714ZM115.739 7H115.097V6.35714H115.739V7ZM115.097 7H114.454V6.35714H115.097V7ZM114.454 7H113.811V6.35714H114.454V7ZM114.454 6.35714H113.811V5.71429H114.454V6.35714ZM115.097 6.35714H114.454V5.71429H115.097V6.35714ZM113.811 6.35714H113.168V5.71429H113.811V6.35714ZM113.811 5.71429H113.168V5.07143H113.811V5.71429ZM113.811 3.14286H113.168V2.5H113.811V3.14286ZM114.454 3.14286H113.811V2.5H114.454V3.14286ZM114.454 5.71429H113.811V5.07143H114.454V5.71429ZM115.097 3.14286H114.454V2.5H115.097V3.14286ZM114.454 2.5H113.811V1.85714H114.454V2.5ZM115.097 2.5H114.454V1.85714H115.097V2.5ZM115.739 2.5H115.097V1.85714H115.739V2.5ZM116.382 2.5H115.739V1.85714H116.382V2.5ZM117.025 2.5H116.382V1.85714H117.025V2.5ZM117.025 3.14286H116.382V2.5H117.025V3.14286ZM116.382 3.14286H115.739V2.5H116.382V3.14286ZM117.025 3.78571H116.382V3.14286H117.025V3.78571ZM117.668 3.14286H117.025V2.5H117.668V3.14286ZM117.668 3.78571H117.025V3.14286H117.668V3.78571ZM117.668 4.42857H117.025V3.78571H117.668V4.42857ZM117.668 5.07143H117.025V4.42857H117.668V5.07143ZM117.668 5.71429H117.025V5.07143H117.668V5.71429ZM117.668 6.35714H117.025V5.71429H117.668V6.35714ZM117.025 5.71429H116.382V5.07143H117.025V5.71429ZM117.025 5.07143H116.382V4.42857H117.025V5.07143ZM117.025 4.42857H116.382V3.78571H117.025V4.42857ZM115.739 3.14286H115.097V2.5H115.739V3.14286ZM115.739 6.35714H115.097V5.71429H115.739V6.35714ZM117.025 6.35714H117.668V7H117.025V6.35714ZM115.739 3.78571H116.382V4.42857H115.739V3.78571ZM115.097 3.78571H115.739V4.42857H115.097V3.78571ZM114.454 3.78571H115.097V4.42857H114.454V3.78571ZM113.811 3.78571H114.454V4.42857H113.811V3.78571ZM113.168 4.42857H113.811V5.07143H113.168V4.42857ZM113.811 4.42857H114.454V5.07143H113.811V4.42857ZM115.739 4.42857H116.382V5.07143H115.739V4.42857ZM115.097 4.42857H115.739V5.07143H115.097V4.42857ZM114.454 4.42857H115.097V5.07143H114.454V4.42857ZM118.312 0.571429H118.955V1.21429H118.312V0.571429ZM118.955 0.571429H119.598V1.21429H118.955V0.571429ZM118.955 1.21429H119.598V1.85714H118.955V1.21429ZM118.955 1.85714H119.598V2.5H118.955V1.85714ZM118.955 2.5H119.598V3.14286H118.955V2.5ZM118.955 3.14286H119.598V3.78571H118.955V3.14286ZM118.955 3.78571H119.598V4.42857H118.955V3.78571ZM118.312 3.78571H118.955V4.42857H118.312V3.78571ZM118.312 4.42857H118.955V5.07143H118.312V4.42857ZM118.312 5.07143H118.955V5.71429H118.312V5.07143ZM118.312 5.71429H118.955V6.35714H118.312V5.71429ZM118.312 6.35714H118.955V7H118.312V6.35714ZM118.955 6.35714H119.598V7H118.955V6.35714ZM118.955 5.71429H119.598V6.35714H118.955V5.71429ZM118.955 5.07143H119.598V5.71429H118.955V5.07143ZM118.955 4.42857H119.598V5.07143H118.955V4.42857ZM118.312 3.14286H118.955V3.78571H118.312V3.14286ZM118.312 2.5H118.955V3.14286H118.312V2.5ZM118.312 1.85714H118.955V2.5H118.312V1.85714ZM118.312 1.21429H118.955V1.85714H118.312V1.21429ZM122.812 1.85714H123.455V2.5H122.812V1.85714ZM122.812 2.5H123.455V3.14286H122.812V2.5ZM122.812 3.14286H123.455V3.78571H122.812V3.14286ZM122.812 3.78571H123.455V4.42857H122.812V3.78571ZM122.812 4.42857H123.455V5.07143H122.812V4.42857ZM122.812 5.07143H123.455V5.71429H122.812V5.07143ZM123.455 5.07143H124.098V5.71429H123.455V5.07143ZM123.455 5.71429H124.098V6.35714H123.455V5.71429ZM124.098 5.71429H124.741V6.35714H124.098V5.71429ZM124.098 6.35714H124.741V7H124.098V6.35714ZM124.741 5.71429H125.384V6.35714H124.741V5.71429ZM125.384 5.07143H126.027V5.71429H125.384V5.07143ZM126.027 3.14286H126.67V3.78571H126.027V3.14286ZM125.384 1.85714H126.027V2.5H125.384V1.85714ZM126.027 1.85714H126.67V2.5H126.027V1.85714ZM126.027 2.5H126.67V3.14286H126.027V2.5ZM126.027 3.78571H126.67V4.42857H126.027V3.78571ZM126.027 4.42857H126.67V5.07143H126.027V4.42857ZM125.384 4.42857H126.027V5.07143H125.384V4.42857ZM125.384 3.78571H126.027V4.42857H125.384V3.78571ZM125.384 3.14286H126.027V3.78571H125.384V3.14286ZM125.384 2.5H126.027V3.14286H125.384V2.5ZM126.027 5.07143H126.67V5.71429H126.027V5.07143ZM127.312 5.71429H127.955V6.35714H127.312V5.71429ZM127.312 6.35714H127.955V7H127.312V6.35714ZM127.955 5.71429H128.598V6.35714H127.955V5.71429ZM127.955 5.07143H128.598V5.71429H127.955V5.07143ZM128.598 5.07143H129.241V5.71429H128.598V5.07143ZM128.598 4.42857H129.241V5.07143H128.598V4.42857ZM128.598 3.78571H129.241V4.42857H128.598V3.78571ZM128.598 3.14286H129.241V3.78571H128.598V3.14286ZM128.598 2.5H129.241V3.14286H128.598V2.5ZM128.598 1.85714H129.241V2.5H128.598V1.85714ZM123.455 2.5H124.098V3.14286H123.455V2.5ZM123.455 3.14286H124.098V3.78571H123.455V3.14286ZM123.455 3.78571H124.098V4.42857H123.455V3.78571ZM123.455 4.42857H124.098V5.07143H123.455V4.42857ZM123.455 1.85714H124.098V2.5H123.455V1.85714ZM127.955 1.85714H128.598V2.5H127.955V1.85714ZM127.955 2.5H128.598V3.14286H127.955V2.5ZM127.955 3.14286H128.598V3.78571H127.955V3.14286ZM127.955 3.78571H128.598V4.42857H127.955V3.78571ZM127.955 4.42857H128.598V5.07143H127.955V4.42857ZM124.741 6.35714H125.384V7H124.741V6.35714ZM125.384 5.71429H126.027V6.35714H125.384V5.71429ZM126.027 5.71429H126.67V6.35714H126.027V5.71429ZM126.67 5.71429H127.312V6.35714H126.67V5.71429ZM126.67 6.35714H127.312V7H126.67V6.35714ZM124.098 5.07143H124.741V5.71429H124.098V5.07143ZM127.312 5.07143H127.955V5.71429H127.312V5.07143ZM129.879 0.571429H131.165V1.85714H129.879V0.571429ZM129.879 2.5H131.165V7H129.879V2.5ZM134.384 5.71429H135.027V6.35714H134.384V5.71429ZM134.384 6.35714H135.027V7H134.384V6.35714ZM133.741 6.35714H134.384V7H133.741V6.35714ZM133.741 5.71429H134.384V6.35714H133.741V5.71429ZM133.098 6.35714H133.741V7H133.098V6.35714ZM133.098 5.71429H133.741V6.35714H133.098V5.71429ZM132.455 5.71429H133.098V6.35714H132.455V5.71429ZM132.455 5.07143H133.098V5.71429H132.455V5.07143ZM132.455 4.42857H133.098V5.07143H132.455V4.42857ZM132.455 3.78571H133.098V4.42857H132.455V3.78571ZM132.455 3.14286H133.098V3.78571H132.455V3.14286ZM132.455 2.5H133.098V3.14286H132.455V2.5ZM133.098 4.42857H133.741V5.07143H133.098V4.42857ZM133.098 5.07143H133.741V5.71429H133.098V5.07143ZM133.098 3.78571H133.741V4.42857H133.098V3.78571ZM133.098 3.14286H133.741V3.78571H133.098V3.14286ZM133.098 0.571429H133.741V1.21429H133.098V0.571429ZM133.098 1.21429H133.741V1.85714H133.098V1.21429ZM133.098 1.85714H133.741V2.5H133.098V1.85714ZM133.098 2.5H133.741V3.14286H133.098V2.5ZM132.455 1.85714H133.098V2.5H132.455V1.85714ZM131.812 2.5H132.455V3.14286H131.812V2.5ZM133.741 2.5H134.384V3.14286H133.741V2.5ZM134.384 2.5H135.027V3.14286H134.384V2.5ZM132.455 1.21429H133.098V1.85714H132.455V1.21429ZM131.812 3.14286H132.455V3.78571H131.812V3.14286ZM133.741 3.14286H134.384V3.78571H133.741V3.14286ZM134.384 3.14286H135.027V3.78571H134.384V3.14286ZM135.668 2.5H136.311V3.14286H135.668V2.5ZM135.668 1.85714H136.311V2.5H135.668V1.85714ZM136.311 1.85714H136.954V2.5H136.311V1.85714ZM136.311 2.5H136.954V3.14286H136.311V2.5ZM136.311 3.14286H136.954V3.78571H136.311V3.14286ZM136.311 3.78571H136.954V4.42857H136.311V3.78571ZM136.311 4.42857H136.954V5.07143H136.311V4.42857ZM135.668 4.42857H136.311V5.07143H135.668V4.42857ZM135.668 3.78571H136.311V4.42857H135.668V3.78571ZM135.668 3.14286H136.311V3.78571H135.668V3.14286ZM135.668 5.07143H136.311V5.71429H135.668V5.07143ZM136.311 5.07143H136.954V5.71429H136.311V5.07143ZM136.311 5.71429H136.954V6.35714H136.311V5.71429ZM136.311 6.35714H136.954V7H136.311V6.35714ZM135.668 6.35714H136.311V7H135.668V6.35714ZM135.668 5.71429H136.311V6.35714H135.668V5.71429ZM138.882 6.35714H139.525V7H138.882V6.35714ZM139.525 6.35714H140.168V7H139.525V6.35714ZM139.525 5.71429H140.168V6.35714H139.525V5.71429ZM139.525 5.07143H140.168V5.71429H139.525V5.07143ZM139.525 4.42857H140.168V5.07143H139.525V4.42857ZM139.525 3.78571H140.168V4.42857H139.525V3.78571ZM139.525 3.14286H140.168V3.78571H139.525V3.14286ZM139.525 2.5H140.168V3.14286H139.525V2.5ZM138.882 3.78571H139.525V4.42857H138.882V3.78571ZM138.882 4.42857H139.525V5.07143H138.882V4.42857ZM138.882 5.07143H139.525V5.71429H138.882V5.07143ZM138.882 5.71429H139.525V6.35714H138.882V5.71429ZM138.882 3.14286H139.525V3.78571H138.882V3.14286ZM136.954 2.5H137.597V3.14286H136.954V2.5ZM137.597 2.5H138.239V3.14286H137.597V2.5ZM138.239 2.5H138.882V3.14286H138.239V2.5ZM138.239 1.85714H138.882V2.5H138.239V1.85714ZM138.882 1.85714H139.525V2.5H138.882V1.85714ZM138.882 2.5H139.525V3.14286H138.882V2.5ZM137.597 1.85714H138.239V2.5H137.597V1.85714ZM135.668 0.571429H136.311V1.21429H135.668V0.571429ZM136.311 0.571429H136.954V1.21429H136.311V0.571429ZM136.311 1.21429H136.954V1.85714H136.311V1.21429ZM135.668 1.21429H136.311V1.85714H135.668V1.21429ZM144.665 0.571429H145.307V1.21429H144.665V0.571429ZM144.022 0.571429H144.665V1.21429H144.022V0.571429ZM144.022 1.21429H144.665V1.85714H144.022V1.21429ZM144.665 1.21429H145.307V1.85714H144.665V1.21429ZM145.307 1.21429H145.95V1.85714H145.307V1.21429ZM145.307 0.571429H145.95V1.21429H145.307V0.571429ZM145.95 0.571429H146.593V1.21429H145.95V0.571429ZM146.593 0.571429H147.236V1.21429H146.593V0.571429ZM146.593 1.21429H147.236V1.85714H146.593V1.21429ZM145.95 1.21429H146.593V1.85714H145.95V1.21429ZM146.593 1.85714H147.236V2.5H146.593V1.85714ZM147.236 1.21429H147.879V1.85714H147.236V1.21429ZM147.236 1.85714H147.879V2.5H147.236V1.85714ZM147.236 5.07143H147.879V5.71429H147.236V5.07143ZM147.236 5.71429H147.879V6.35714H147.236V5.71429ZM146.593 5.71429H147.236V6.35714H146.593V5.71429ZM146.593 5.07143H147.236V5.71429H146.593V5.07143ZM145.95 5.71429H146.593V6.35714H145.95V5.71429ZM146.593 6.35714H147.236V7H146.593V6.35714ZM145.95 6.35714H146.593V7H145.95V6.35714ZM145.307 6.35714H145.95V7H145.307V6.35714ZM145.307 5.71429H145.95V6.35714H145.307V5.71429ZM144.665 6.35714H145.307V7H144.665V6.35714ZM144.022 6.35714H144.665V7H144.022V6.35714ZM144.022 5.71429H144.665V6.35714H144.022V5.71429ZM144.665 5.71429H145.307V6.35714H144.665V5.71429ZM144.665 5.07143H145.307V5.71429H144.665V5.07143ZM144.022 5.07143H144.665V5.71429H144.022V5.07143ZM143.379 5.71429H144.022V6.35714H143.379V5.71429ZM143.379 5.07143H144.022V5.71429H143.379V5.07143ZM143.379 4.42857H144.022V5.07143H143.379V4.42857ZM143.379 3.78571H144.022V4.42857H143.379V3.78571ZM143.379 3.14286H144.022V3.78571H143.379V3.14286ZM143.379 2.5H144.022V3.14286H143.379V2.5ZM143.379 1.85714H144.022V2.5H143.379V1.85714ZM144.022 1.85714H144.665V2.5H144.022V1.85714ZM143.379 1.21429H144.022V1.85714H143.379V1.21429ZM144.665 1.85714H145.307V2.5H144.665V1.85714ZM144.022 2.5H144.665V3.14286H144.022V2.5ZM144.022 3.14286H144.665V3.78571H144.022V3.14286ZM144.022 3.78571H144.665V4.42857H144.022V3.78571ZM144.022 4.42857H144.665V5.07143H144.022V4.42857ZM149.809 1.85714H150.452V2.5H149.809V1.85714ZM149.166 1.85714H149.809V2.5H149.166V1.85714ZM149.166 2.5H149.809V3.14286H149.166V2.5ZM149.809 2.5H150.452V3.14286H149.809V2.5ZM150.452 1.85714H151.095V2.5H150.452V1.85714ZM151.095 1.85714H151.738V2.5H151.095V1.85714ZM151.738 1.85714H152.381V2.5H151.738V1.85714ZM151.738 2.5H152.381V3.14286H151.738V2.5ZM151.095 2.5H151.738V3.14286H151.095V2.5ZM151.738 3.78571H152.381V4.42857H151.738V3.78571ZM152.381 2.5H153.023V3.14286H152.381V2.5ZM152.381 3.14286H153.023V3.78571H152.381V3.14286ZM152.381 3.78571H153.023V4.42857H152.381V3.78571ZM152.381 4.42857H153.023V5.07143H152.381V4.42857ZM152.381 5.07143H153.023V5.71429H152.381V5.07143ZM152.381 5.71429H153.023V6.35714H152.381V5.71429ZM151.738 5.71429H152.381V6.35714H151.738V5.71429ZM151.738 5.07143H152.381V5.71429H151.738V5.07143ZM151.738 4.42857H152.381V5.07143H151.738V4.42857ZM151.738 3.14286H152.381V3.78571H151.738V3.14286ZM151.095 5.71429H151.738V6.35714H151.095V5.71429ZM151.738 6.35714H152.381V7H151.738V6.35714ZM151.095 6.35714H151.738V7H151.095V6.35714ZM150.452 6.35714H151.095V7H150.452V6.35714ZM149.809 6.35714H150.452V7H149.809V6.35714ZM149.166 6.35714H149.809V7H149.166V6.35714ZM149.166 5.71429H149.809V6.35714H149.166V5.71429ZM149.809 5.71429H150.452V6.35714H149.809V5.71429ZM149.166 5.07143H149.809V5.71429H149.166V5.07143ZM148.523 5.71429H149.166V6.35714H148.523V5.71429ZM148.523 5.07143H149.166V5.71429H148.523V5.07143ZM148.523 4.42857H149.166V5.07143H148.523V4.42857ZM148.523 3.78571H149.166V4.42857H148.523V3.78571ZM148.523 3.14286H149.166V3.78571H148.523V3.14286ZM148.523 2.5H149.166V3.14286H148.523V2.5ZM149.166 3.14286H149.809V3.78571H149.166V3.14286ZM149.166 3.78571H149.809V4.42857H149.166V3.78571ZM149.166 4.42857H149.809V5.07143H149.166V4.42857ZM150.452 5.71429H151.095V6.35714H150.452V5.71429ZM150.452 2.5H151.095V3.14286H150.452V2.5ZM158.168 2.5V3.14286H157.525V2.5H158.168ZM158.168 1.85714V2.5H157.525V1.85714H158.168ZM157.525 1.85714V2.5H156.882V1.85714H157.525ZM157.525 2.5V3.14286H156.882V2.5H157.525ZM157.525 3.14286V3.78571H156.882V3.14286H157.525ZM157.525 3.78571V4.42857H156.882V3.78571H157.525ZM157.525 4.42857V5.07143H156.882V4.42857H157.525ZM158.168 4.42857V5.07143H157.525V4.42857H158.168ZM158.168 3.78571V4.42857H157.525V3.78571H158.168ZM158.168 3.14286V3.78571H157.525V3.14286H158.168ZM158.168 5.07143V5.71429H157.525V5.07143H158.168ZM157.525 5.07143V5.71429H156.882V5.07143H157.525ZM157.525 5.71429V6.35714H156.882V5.71429H157.525ZM157.525 6.35714V7H156.882V6.35714H157.525ZM158.168 6.35714V7H157.525V6.35714H158.168ZM158.168 5.71429V6.35714H157.525V5.71429H158.168ZM154.954 6.35714V7H154.311V6.35714H154.954ZM154.311 5.71429V6.35714H153.668V5.71429H154.311ZM154.311 5.07143V5.71429H153.668V5.07143H154.311ZM154.311 4.42857V5.07143H153.668V4.42857H154.311ZM154.311 3.78571V4.42857H153.668V3.78571H154.311ZM154.311 3.14286V3.78571H153.668V3.14286H154.311ZM154.311 2.5V3.14286H153.668V2.5H154.311ZM154.954 3.78571V4.42857H154.311V3.78571H154.954ZM154.954 4.42857V5.07143H154.311V4.42857H154.954ZM154.954 5.07143V5.71429H154.311V5.07143H154.954ZM154.954 5.71429V6.35714H154.311V5.71429H154.954ZM154.954 3.14286V3.78571H154.311V3.14286H154.954ZM155.597 2.5V3.14286H154.954V2.5H155.597ZM155.597 1.85714V2.5H154.954V1.85714H155.597ZM154.954 1.85714V2.5H154.311V1.85714H154.954ZM154.954 2.5V3.14286H154.311V2.5H154.954ZM156.239 1.85714V2.5H155.597V1.85714H156.239ZM158.168 0.571429V1.21429H157.525V0.571429H158.168ZM157.525 0.571429V1.21429H156.882V0.571429H157.525ZM157.525 1.21429V1.85714H156.882V1.21429H157.525ZM158.168 1.21429V1.85714H157.525V1.21429H158.168ZM156.239 6.35714V7H155.597V6.35714H156.239ZM155.597 6.35714V7H154.954V6.35714H155.597ZM155.597 5.71429V6.35714H154.954V5.71429H155.597ZM156.239 5.71429V6.35714H155.597V5.71429H156.239ZM156.882 5.71429V6.35714H156.239V5.71429H156.882ZM156.882 1.85714V2.5H156.239V1.85714H156.882ZM156.882 2.5V3.14286H156.239V2.5H156.882ZM156.239 2.5V3.14286H155.597V2.5H156.239ZM160.098 1.85714H160.741V2.5H160.098V1.85714ZM159.455 1.85714H160.098V2.5H159.455V1.85714ZM159.455 2.5H160.098V3.14286H159.455V2.5ZM160.098 2.5H160.741V3.14286H160.098V2.5ZM160.741 1.85714H161.384V2.5H160.741V1.85714ZM161.384 1.85714H162.027V2.5H161.384V1.85714ZM162.027 1.85714H162.67V2.5H162.027V1.85714ZM162.027 2.5H162.67V3.14286H162.027V2.5ZM161.384 2.5H162.027V3.14286H161.384V2.5ZM162.67 2.5H163.312V3.14286H162.67V2.5ZM162.67 3.14286H163.312V3.78571H162.67V3.14286ZM162.67 5.71429H163.312V6.35714H162.67V5.71429ZM162.027 5.71429H162.67V6.35714H162.027V5.71429ZM162.027 3.14286H162.67V3.78571H162.027V3.14286ZM161.384 5.71429H162.027V6.35714H161.384V5.71429ZM162.027 6.35714H162.67V7H162.027V6.35714ZM161.384 6.35714H162.027V7H161.384V6.35714ZM160.741 6.35714H161.384V7H160.741V6.35714ZM160.098 6.35714H160.741V7H160.098V6.35714ZM159.455 6.35714H160.098V7H159.455V6.35714ZM159.455 5.71429H160.098V6.35714H159.455V5.71429ZM160.098 5.71429H160.741V6.35714H160.098V5.71429ZM159.455 5.07143H160.098V5.71429H159.455V5.07143ZM158.812 5.71429H159.455V6.35714H158.812V5.71429ZM158.812 5.07143H159.455V5.71429H158.812V5.07143ZM158.812 4.42857H159.455V5.07143H158.812V4.42857ZM158.812 3.78571H159.455V4.42857H158.812V3.78571ZM158.812 3.14286H159.455V3.78571H158.812V3.14286ZM158.812 2.5H159.455V3.14286H158.812V2.5ZM159.455 3.14286H160.098V3.78571H159.455V3.14286ZM159.455 3.78571H160.098V4.42857H159.455V3.78571ZM159.455 4.42857H160.098V5.07143H159.455V4.42857ZM160.741 5.71429H161.384V6.35714H160.741V5.71429ZM160.741 2.5H161.384V3.14286H160.741V2.5ZM162.027 3.78571H162.67V4.42857H162.027V3.78571ZM162.67 3.78571H163.312V4.42857H162.67V3.78571ZM160.098 4.42857H160.741V5.07143H160.098V4.42857ZM160.741 4.42857H161.384V5.07143H160.741V4.42857ZM161.384 4.42857H162.027V5.07143H161.384V4.42857ZM162.027 4.42857H162.67V5.07143H162.027V4.42857ZM162.67 4.42857H163.312V5.07143H162.67V4.42857ZM161.384 3.78571H162.027V4.42857H161.384V3.78571ZM160.741 3.78571H161.384V4.42857H160.741V3.78571ZM160.098 3.78571H160.741V4.42857H160.098V3.78571ZM163.957 5.71429H164.6V6.35714H163.957V5.71429ZM163.957 5.07143H164.6V5.71429H163.957V5.07143ZM164.6 5.07143H165.243V5.71429H164.6V5.07143ZM164.6 5.71429H165.243V6.35714H164.6V5.71429ZM164.6 4.42857H165.243V5.07143H164.6V4.42857ZM165.243 4.42857H165.886V5.07143H165.243V4.42857ZM166.528 4.42857H167.171V5.07143H166.528V4.42857ZM167.171 4.42857H167.814V5.07143H167.171V4.42857ZM167.171 5.71429H167.814V6.35714H167.171V5.71429ZM167.814 5.71429H168.457V6.35714H167.814V5.71429ZM167.814 5.07143H168.457V5.71429H167.814V5.07143ZM165.243 3.78571H165.886V4.42857H165.243V3.78571ZM165.886 3.78571H166.528V4.42857H165.886V3.78571ZM166.528 3.78571H167.171V4.42857H166.528V3.78571ZM166.528 3.14286H167.171V3.78571H166.528V3.14286ZM167.171 3.14286H167.814V3.78571H167.171V3.14286ZM167.171 2.5H167.814V3.14286H167.171V2.5ZM167.171 1.85714H167.814V2.5H167.171V1.85714ZM167.814 1.85714H168.457V2.5H167.814V1.85714ZM167.814 2.5H168.457V3.14286H167.814V2.5ZM165.243 3.14286H165.886V3.78571H165.243V3.14286ZM164.6 3.14286H165.243V3.78571H164.6V3.14286ZM164.6 2.5H165.243V3.14286H164.6V2.5ZM164.6 1.85714H165.243V2.5H164.6V1.85714ZM163.957 1.85714H164.6V2.5H163.957V1.85714ZM163.957 2.5H164.6V3.14286H163.957V2.5ZM165.243 5.07143H165.886V5.71429H165.243V5.07143ZM166.528 5.07143H167.171V5.71429H166.528V5.07143ZM167.171 5.07143H167.814V5.71429H167.171V5.07143ZM165.243 2.5H165.886V3.14286H165.243V2.5ZM166.528 2.5H167.171V3.14286H166.528V2.5ZM165.886 3.14286H166.528V3.78571H165.886V3.14286ZM165.886 4.42857H166.528V5.07143H165.886V4.42857ZM163.957 6.35714H164.6V7H163.957V6.35714ZM164.6 6.35714H165.243V7H164.6V6.35714ZM167.171 6.35714H167.814V7H167.171V6.35714ZM167.814 6.35714H168.457V7H167.814V6.35714ZM172.954 0.571429H173.597V1.21429H172.954V0.571429ZM172.311 0.571429H172.954V1.21429H172.311V0.571429ZM172.311 1.21429H172.954V1.85714H172.311V1.21429ZM172.954 1.21429H173.597V1.85714H172.954V1.21429ZM173.597 1.21429H174.239V1.85714H173.597V1.21429ZM173.597 0.571429H174.239V1.21429H173.597V0.571429ZM174.239 0.571429H174.882V1.21429H174.239V0.571429ZM174.882 0.571429H175.525V1.21429H174.882V0.571429ZM174.882 1.21429H175.525V1.85714H174.882V1.21429ZM174.239 1.21429H174.882V1.85714H174.239V1.21429ZM174.882 1.85714H175.525V2.5H174.882V1.85714ZM175.525 1.21429H176.168V1.85714H175.525V1.21429ZM175.525 1.85714H176.168V2.5H175.525V1.85714ZM175.525 5.07143H176.168V5.71429H175.525V5.07143ZM175.525 5.71429H176.168V6.35714H175.525V5.71429ZM174.882 5.71429H175.525V6.35714H174.882V5.71429ZM174.882 5.07143H175.525V5.71429H174.882V5.07143ZM174.239 5.71429H174.882V6.35714H174.239V5.71429ZM174.882 6.35714H175.525V7H174.882V6.35714ZM174.239 6.35714H174.882V7H174.239V6.35714ZM173.597 6.35714H174.239V7H173.597V6.35714ZM173.597 5.71429H174.239V6.35714H173.597V5.71429ZM172.954 6.35714H173.597V7H172.954V6.35714ZM172.311 6.35714H172.954V7H172.311V6.35714ZM172.311 5.71429H172.954V6.35714H172.311V5.71429ZM172.954 5.71429H173.597V6.35714H172.954V5.71429ZM172.954 5.07143H173.597V5.71429H172.954V5.07143ZM172.311 5.07143H172.954V5.71429H172.311V5.07143ZM171.668 5.71429H172.311V6.35714H171.668V5.71429ZM171.668 5.07143H172.311V5.71429H171.668V5.07143ZM171.668 4.42857H172.311V5.07143H171.668V4.42857ZM171.668 3.78571H172.311V4.42857H171.668V3.78571ZM171.668 3.14286H172.311V3.78571H171.668V3.14286ZM171.668 2.5H172.311V3.14286H171.668V2.5ZM171.668 1.85714H172.311V2.5H171.668V1.85714ZM172.311 1.85714H172.954V2.5H172.311V1.85714ZM171.668 1.21429H172.311V1.85714H171.668V1.21429ZM172.954 1.85714H173.597V2.5H172.954V1.85714ZM172.311 2.5H172.954V3.14286H172.311V2.5ZM172.311 3.14286H172.954V3.78571H172.311V3.14286ZM172.311 3.78571H172.954V4.42857H172.311V3.78571ZM172.311 4.42857H172.954V5.07143H172.311V4.42857ZM176.812 0.571429H177.455V1.21429H176.812V0.571429ZM177.455 0.571429H178.098V1.21429H177.455V0.571429ZM177.455 1.21429H178.098V1.85714H177.455V1.21429ZM177.455 1.85714H178.098V2.5H177.455V1.85714ZM177.455 2.5H178.098V3.14286H177.455V2.5ZM177.455 3.14286H178.098V3.78571H177.455V3.14286ZM177.455 3.78571H178.098V4.42857H177.455V3.78571ZM176.812 3.78571H177.455V4.42857H176.812V3.78571ZM176.812 4.42857H177.455V5.07143H176.812V4.42857ZM176.812 5.07143H177.455V5.71429H176.812V5.07143ZM176.812 5.71429H177.455V6.35714H176.812V5.71429ZM176.812 6.35714H177.455V7H176.812V6.35714ZM177.455 6.35714H178.098V7H177.455V6.35714ZM177.455 5.71429H178.098V6.35714H177.455V5.71429ZM177.455 5.07143H178.098V5.71429H177.455V5.07143ZM177.455 4.42857H178.098V5.07143H177.455V4.42857ZM176.812 3.14286H177.455V3.78571H176.812V3.14286ZM176.812 2.5H177.455V3.14286H176.812V2.5ZM176.812 1.85714H177.455V2.5H176.812V1.85714ZM176.812 1.21429H177.455V1.85714H176.812V1.21429ZM183.246 6.35714H182.603V5.71429H183.246V6.35714ZM183.246 7H182.603V6.35714H183.246V7ZM182.603 7H181.96V6.35714H182.603V7ZM182.603 6.35714H181.96V5.71429H182.603V6.35714ZM182.603 5.71429H181.96V5.07143H182.603V5.71429ZM182.603 5.07143H181.96V4.42857H182.603V5.07143ZM182.603 4.42857H181.96V3.78571H182.603V4.42857ZM183.246 4.42857H182.603V3.78571H183.246V4.42857ZM183.246 5.07143H182.603V4.42857H183.246V5.07143ZM183.246 5.71429H182.603V5.07143H183.246V5.71429ZM183.246 3.78571H182.603V3.14286H183.246V3.78571ZM182.603 3.78571H181.96V3.14286H182.603V3.78571ZM182.603 3.14286H181.96V2.5H182.603V3.14286ZM182.603 2.5H181.96V1.85714H182.603V2.5ZM183.246 2.5H182.603V1.85714H183.246V2.5ZM183.246 3.14286H182.603V2.5H183.246V3.14286ZM180.032 2.5H179.389V1.85714H180.032V2.5ZM179.389 2.5H178.746V1.85714H179.389V2.5ZM179.389 3.14286H178.746V2.5H179.389V3.14286ZM179.389 3.78571H178.746V3.14286H179.389V3.78571ZM179.389 4.42857H178.746V3.78571H179.389V4.42857ZM179.389 5.07143H178.746V4.42857H179.389V5.07143ZM179.389 5.71429H178.746V5.07143H179.389V5.71429ZM179.389 6.35714H178.746V5.71429H179.389V6.35714ZM180.032 5.07143H179.389V4.42857H180.032V5.07143ZM180.032 4.42857H179.389V3.78571H180.032V4.42857ZM180.032 3.78571H179.389V3.14286H180.032V3.78571ZM180.032 3.14286H179.389V2.5H180.032V3.14286ZM180.032 5.71429H179.389V5.07143H180.032V5.71429ZM181.96 6.35714H181.318V5.71429H181.96V6.35714ZM181.318 6.35714H180.675V5.71429H181.318V6.35714ZM180.675 6.35714H180.032V5.71429H180.675V6.35714ZM180.675 7H180.032V6.35714H180.675V7ZM180.032 7H179.389V6.35714H180.032V7ZM180.032 6.35714H179.389V5.71429H180.032V6.35714ZM181.318 7H180.675V6.35714H181.318V7ZM183.891 2.5H184.533V3.14286H183.891V2.5ZM183.891 1.85714H184.533V2.5H183.891V1.85714ZM184.533 1.85714H185.176V2.5H184.533V1.85714ZM184.533 2.5H185.176V3.14286H184.533V2.5ZM184.533 3.14286H185.176V3.78571H184.533V3.14286ZM184.533 3.78571H185.176V4.42857H184.533V3.78571ZM184.533 4.42857H185.176V5.07143H184.533V4.42857ZM183.891 4.42857H184.533V5.07143H183.891V4.42857ZM183.891 3.78571H184.533V4.42857H183.891V3.78571ZM183.891 3.14286H184.533V3.78571H183.891V3.14286ZM183.891 5.07143H184.533V5.71429H183.891V5.07143ZM184.533 5.07143H185.176V5.71429H184.533V5.07143ZM184.533 5.71429H185.176V6.35714H184.533V5.71429ZM184.533 6.35714H185.176V7H184.533V6.35714ZM183.891 6.35714H184.533V7H183.891V6.35714ZM183.891 5.71429H184.533V6.35714H183.891V5.71429ZM187.105 6.35714H187.748V7H187.105V6.35714ZM187.748 5.71429H188.391V6.35714H187.748V5.71429ZM187.748 5.07143H188.391V5.71429H187.748V5.07143ZM187.748 4.42857H188.391V5.07143H187.748V4.42857ZM187.748 3.78571H188.391V4.42857H187.748V3.78571ZM187.748 3.14286H188.391V3.78571H187.748V3.14286ZM187.748 2.5H188.391V3.14286H187.748V2.5ZM187.105 3.78571H187.748V4.42857H187.105V3.78571ZM187.105 4.42857H187.748V5.07143H187.105V4.42857ZM187.105 5.07143H187.748V5.71429H187.105V5.07143ZM187.105 5.71429H187.748V6.35714H187.105V5.71429ZM187.105 3.14286H187.748V3.78571H187.105V3.14286ZM185.176 2.5H185.819V3.14286H185.176V2.5ZM185.819 2.5H186.462V3.14286H185.819V2.5ZM186.462 2.5H187.105V3.14286H186.462V2.5ZM186.462 1.85714H187.105V2.5H186.462V1.85714ZM187.105 1.85714H187.748V2.5H187.105V1.85714ZM187.105 2.5H187.748V3.14286H187.105V2.5ZM185.819 1.85714H186.462V2.5H185.819V1.85714ZM183.891 0.571429H184.533V1.21429H183.891V0.571429ZM184.533 0.571429H185.176V1.21429H184.533V0.571429ZM184.533 1.21429H185.176V1.85714H184.533V1.21429ZM183.891 1.21429H184.533V1.85714H183.891V1.21429ZM185.176 6.35714H185.819V7H185.176V6.35714ZM185.819 6.35714H186.462V7H185.819V6.35714ZM186.462 6.35714H187.105V7H186.462V6.35714ZM186.462 5.71429H187.105V6.35714H186.462V5.71429ZM185.819 5.71429H186.462V6.35714H185.819V5.71429ZM185.176 5.71429H185.819V6.35714H185.176V5.71429Z" fill="black"/>
</svg>
